<?xml version="1.0" standalone="no"?>
<!DOCTYPE svg PUBLIC "-//W3C//DTD SVG 20010904//EN"
 "http://www.w3.org/TR/2001/REC-SVG-20010904/DTD/svg10.dtd">
<svg version="1.0" xmlns="http://www.w3.org/2000/svg"
 width="1250.000000pt" height="1280.000000pt" viewBox="0 0 1250.000000 1280.000000"
 preserveAspectRatio="xMidYMid meet">
<metadata>
Created by potrace 1.15, written by Peter Selinger 2001-2017
</metadata>
<g transform="translate(0.000000,1280.000000) scale(0.100000,-0.100000)"
fill="#ffeb3b" stroke="none">
<path d="M6084 12786 c-456 -105 -888 -692 -1295 -1764 -209 -549 -432 -1303
-614 -2082 -66 -280 -64 -273 -83 -265 -150 57 -762 218 -1047 274 -517 102
-742 126 -1220 125 -421 0 -531 -10 -794 -75 -773 -191 -1128 -671 -1006
-1362 87 -490 427 -1084 985 -1722 394 -450 975 -994 1542 -1443 81 -65 147
-122 148 -127 0 -6 -39 -107 -86 -225 -676 -1686 -951 -2873 -815 -3524 205
-980 1342 -747 3371 693 230 163 506 367 744 550 88 67 165 120 171 117 7 -2
126 -89 266 -194 1254 -934 2233 -1496 2915 -1672 198 -51 287 -63 464 -64
138 0 178 3 248 22 329 86 517 328 598 767 26 141 26 643 0 855 -86 700 -309
1561 -680 2624 -42 120 -76 222 -76 226 0 4 69 60 153 125 534 415 1060 879
1403 1241 447 469 721 838 914 1229 149 300 205 505 205 745 -1 152 -10 217
-51 334 -81 235 -281 437 -569 576 -409 197 -943 281 -1700 267 -506 -10 -921
-50 -1538 -149 -149 -23 -262 -37 -266 -32 -5 5 -32 99 -61 209 -260 994 -564
1866 -861 2474 -127 260 -181 357 -296 535 -124 191 -194 278 -327 412 -159
158 -268 231 -426 283 -84 28 -233 36 -316 17z"/>
</g>
</svg>
